<?xml version="1.0" standalone="no"?>
<!DOCTYPE svg PUBLIC "-//W3C//DTD SVG 20010904//EN"
 "http://www.w3.org/TR/2001/REC-SVG-20010904/DTD/svg10.dtd">
<svg version="1.0" xmlns="http://www.w3.org/2000/svg"
 width="151.000000pt" height="125.000000pt" viewBox="0 0 151.000000 125.000000"
 preserveAspectRatio="xMidYMid meet">

<g transform="translate(0.000000,125.000000) scale(0.100000,-0.100000)"
fill="#000000" stroke="none">
<path d="M1303 1170 c-31 -12 -38 -29 -152 -349 l-102 -285 19 -25 c27 -37 74
-40 99 -7 32 41 237 566 236 606 -2 55 -46 82 -100 60z"/>
<path d="M351 1143 c-24 -20 -301 -787 -301 -833 0 -38 41 -74 75 -66 26 7 59
34 67 56 2 8 16 4 42 -14 47 -32 96 -46 158 -46 53 0 143 30 183 62 20 16 42
21 98 22 44 1 84 8 102 18 69 37 144 138 145 194 0 32 -33 56 -71 52 -26 -2
-37 -11 -56 -43 -33 -58 -36 -61 -60 -74 -38 -19 -43 -13 -28 30 8 23 15 63
15 89 0 48 -29 132 -50 145 -7 4 -2 14 15 27 34 27 72 93 84 149 21 92 -38
184 -131 210 -41 11 -108 8 -155 -6 -17 -6 -23 -3 -23 8 0 36 -73 49 -109 20z
m227 -169 c28 -19 29 -58 2 -102 -18 -30 -24 -33 -48 -26 -75 21 -112 11 -142
-39 -30 -49 -26 -87 15 -127 29 -28 41 -33 78 -32 58 3 72 -15 68 -85 -1 -22
-1 -22 -48 5 -41 23 -60 27 -126 27 -65 0 -76 2 -71 15 3 8 25 69 49 135 71
200 81 217 141 235 43 12 57 12 82 -6z m-121 -529 c30 -20 20 -40 -28 -59 -50
-20 -62 -20 -89 2 -16 13 -21 24 -16 39 13 42 81 51 133 18z"/>
<path d="M1020 413 c-58 -21 -68 -87 -21 -134 36 -36 73 -37 106 -4 62 61 -4
168 -85 138z"/>
</g>
</svg>
