<?xml version="1.0" standalone="no"?>
<!DOCTYPE svg PUBLIC "-//W3C//DTD SVG 20010904//EN"
 "http://www.w3.org/TR/2001/REC-SVG-20010904/DTD/svg10.dtd">
<svg version="1.0" xmlns="http://www.w3.org/2000/svg"
 width="160.000000pt" height="165.000000pt" viewBox="0 0 160.000000 165.000000"
 preserveAspectRatio="xMidYMid meet">

<g transform="translate(0.000000,165.000000) scale(0.100000,-0.100000)"
fill="#000000" stroke="none">
<path d="M284 1640 c-111 -17 -199 -83 -251 -188 l-28 -57 0 -570 0 -570 28
-57 c35 -72 97 -134 167 -167 l55 -26 545 0 545 0 55 26 c70 33 132 96 168
168 l27 56 0 570 0 570 -26 55 c-34 72 -109 144 -179 172 -54 22 -64 23 -555
24 -275 1 -523 -1 -551 -6z m1140 -192 c9 -12 16 -36 16 -52 0 -37 -118 -604
-131 -628 -24 -45 -111 -28 -117 23 -2 15 20 157 47 317 28 160 51 295 51 300
0 5 11 21 25 36 32 34 87 36 109 4z m-924 -174 c12 -10 26 -9 75 8 131 44 240
-11 269 -136 10 -42 -11 -127 -44 -179 l-28 -45 20 -19 c46 -42 75 -143 60
-211 -8 -33 -7 -42 3 -42 22 0 72 66 79 104 8 40 29 56 75 56 62 0 66 -85 8
-181 -39 -65 -105 -109 -174 -117 -38 -4 -57 -13 -90 -43 -72 -66 -116 -84
-213 -84 -62 0 -94 5 -119 17 -41 22 -41 22 -41 4 0 -7 -10 -25 -21 -40 -28
-35 -83 -33 -110 4 -19 25 -18 31 51 444 39 230 75 427 81 438 13 23 67 48 88
40 9 -3 23 -11 31 -18z m775 -621 c23 -22 36 -59 28 -80 -13 -37 -46 -63 -80
-63 -71 0 -109 86 -61 137 26 28 88 32 113 6z"/>
<path d="M583 1139 c-34 -10 -80 -58 -88 -92 -9 -41 -55 -314 -55 -326 0 -8 5
-9 19 -2 48 26 145 24 214 -4 14 -6 17 -2 17 26 0 53 -22 68 -88 62 -51 -5
-60 -2 -84 20 -47 44 -49 101 -4 153 20 24 31 28 80 28 51 1 59 4 71 26 40 72
-4 131 -82 109z"/>
<path d="M516 589 c-28 -22 -33 -48 -14 -67 26 -26 92 -7 132 37 19 21 19 21
-17 36 -49 20 -69 19 -101 -6z"/>
</g>
</svg>
