<svg xmlns="http://www.w3.org/2000/svg" viewBox="0 0 200 200" fill="none">
  <g clip-path="url(#clip0_36_15845)">
    <path
      fill-rule="evenodd"
      clip-rule="evenodd"
      d="M166.08 38.6571C166.252 37.2951 165.792 35.9294 164.832 34.9481C163.872 33.9669 162.517 33.4774 161.152 33.619C159.083 33.8334 157.295 34.0217 155.732 34.1863L155.714 34.1882L155.708 34.1888L155.708 34.1889C149.728 34.8186 147.046 35.1011 144.493 35.1775C142.144 35.2479 139.979 35.1426 135.471 34.9233L135.469 34.9232L135.468 34.9232C133.807 34.8424 131.827 34.7461 129.402 34.6374C114.95 33.9896 103.625 36.6269 94.4771 41.2174C87.1067 44.916 81.3231 49.7961 76.541 54.9389C65.1192 43.8605 51.5177 35.5837 38.2986 33.8662C36.9291 33.6882 35.5537 34.149 34.5677 35.1161C33.5818 36.0831 33.0945 37.4494 33.2459 38.8221C33.4742 40.891 33.6743 42.6784 33.8493 44.241L33.8508 44.254L33.8517 44.2619C34.5208 50.2372 34.821 52.9175 34.9142 55.4696C35.0001 57.819 34.9091 59.9843 34.7195 64.4934L34.7195 64.4938L34.7195 64.4941L34.7194 64.4971L34.7192 64.5002C34.6494 66.1615 34.5662 68.1407 34.4736 70.5642C33.9229 84.971 36.432 96.0761 40.904 105.016C44.5195 112.243 49.319 117.855 54.4574 122.555C43.3324 133.741 34.9589 147.095 33.0438 160.178C32.8437 161.544 33.2822 162.927 34.2333 163.928C35.1843 164.93 36.5425 165.439 37.9174 165.31C39.999 165.114 41.7962 164.942 43.3663 164.792L43.3672 164.792C49.3519 164.219 52.0365 163.962 54.5897 163.91C56.9402 163.862 59.1039 163.988 63.6096 164.251L63.6173 164.251C65.277 164.348 67.2542 164.463 69.6752 164.595C84.0713 165.378 95.2154 163.049 104.226 158.722C111.48 155.238 117.151 150.556 121.92 145.519C132.876 156.842 146.048 165.46 159.075 167.629C160.437 167.856 161.828 167.445 162.848 166.514C163.868 165.583 164.404 164.235 164.302 162.858C164.147 160.773 164.01 158.972 163.891 157.4C163.437 151.404 163.233 148.715 163.231 146.161C163.229 143.81 163.398 141.65 163.749 137.15L163.749 137.15C163.878 135.491 164.033 133.514 164.212 131.092C165.279 116.714 163.169 105.526 159.021 96.4321C155.676 89.0997 151.096 83.3305 146.145 78.4583C156.523 68.1237 164.025 54.9825 166.08 38.6571ZM131.061 79.5578C132.168 78.7283 133.283 77.8596 134.408 76.9492C145.013 68.2268 152.999 57.0452 156.155 43.1924C150.553 43.7829 147.566 44.0896 144.763 44.1735C142.034 44.2552 139.4 44.1268 134.676 43.8965C133.058 43.8177 131.195 43.7268 128.999 43.6284C115.913 43.0418 106.142 45.4335 98.5137 49.2614C92.1451 52.4573 87.0854 56.7469 82.7529 61.4782C85.1407 64.2027 87.4183 67.063 89.5554 70.0267C95.5817 78.215 99.7894 86.0285 102.746 94.0952C112.913 90.5769 122.669 85.7615 131.061 79.5578ZM74.6291 65.8933C77.4994 69.1468 80.036 72.2778 82.2814 75.3264C87.1719 82.1147 91.2296 89.4448 94.0414 96.8157C83.2838 100.673 72.4554 106.363 60.9228 116.269C56.2019 112.014 52.0372 107.155 48.9531 100.989C45.2599 93.6067 42.9648 84.046 43.467 70.9079C43.5509 68.7126 43.6294 66.8499 43.6976 65.2323L43.6977 65.2308L43.6977 65.2292L43.6978 65.229L43.6978 65.2289C43.8969 60.5036 44.0079 57.8696 43.9082 55.1409C43.8075 52.3852 43.4903 49.4529 42.8832 44.0336C52.2785 46.8347 62.3117 53.4178 71.3627 62.4707C72.4725 63.5808 73.5623 64.7228 74.6291 65.8933ZM154.803 136.093C154.929 134.478 155.074 132.619 155.237 130.426C156.21 117.315 154.259 107.678 150.832 100.168C147.971 93.8957 143.983 88.8904 139.418 84.4689C127.538 93.9555 116.512 99.2534 105.623 102.723C109.888 115.232 117.652 127.751 127.057 137.858C135.778 147.23 145.568 154.168 154.857 157.304C154.445 151.867 154.233 148.925 154.231 146.167C154.229 143.437 154.434 140.808 154.803 136.093ZM64.4946 155.286L64.4899 155.286L64.4894 155.286C59.768 155.01 57.1362 154.857 54.4064 154.912C51.6494 154.968 48.7123 155.238 43.2839 155.758C46.2364 146.409 52.9807 136.483 62.1786 127.58C72.0984 117.977 84.4629 109.969 96.8854 105.459C100.568 116.277 106.082 127.196 115.801 138.887C111.47 143.539 106.545 147.624 100.33 150.608C92.8889 154.182 83.2924 156.322 70.1642 155.608C67.9712 155.489 66.1106 155.38 64.4946 155.286Z"
      fill="white"
    />
  </g>
</svg>